# xmcd
#
# Track frame offsets: 
#        150
#        7965
#        21025
#        30707
#        40595
#        55300
#        63425
#        75280
#        85895
#        97482
#        111185
#        121937
#        133905
#        142687
#
# Disc length: 2056 seconds
#
# Revision: 0
# Processed by: cddbd v1.5.2PL0 Copyright (c) Steve Scherf et al.
# Submitted via: ExactAudioCopy v0.99pb4
#
DISCID=ae08060e
DTITLE=Red and the Pepperpot Boys - Rock-A-Bye Honey
DYEAR=1998
DGENRE=Hillbilly
TTITLE0=Rock-A-Bye Honey
TTITLE1=Cabin In The Hills
TTITLE2=Crazy Little Mama
TTITLE3=Just Tell Me Lies
TTITLE4=The Color Of Her Eyes
TTITLE5=Heart Like A Wheel
TTITLE6=Go Go Go
TTITLE7=Used To Be
TTITLE8=Walk A Mile
TTITLE9=Please Don'T Break My Heart
TTITLE10=High Time
TTITLE11=Drink Drink Drink
TTITLE12=Pin Up Peggy
TTITLE13=Midnight Cruise
EXTD=
EXTT0=
EXTT1=
EXTT2=
EXTT3=
EXTT4=
EXTT5=
EXTT6=
EXTT7=
EXTT8=
EXTT9=
EXTT10=
EXTT11=
EXTT12=
EXTT13=
PLAYORDER=
